<svg width="80" height="80" viewBox="0 0 80 80" fill="none" xmlns="http://www.w3.org/2000/svg">
<path d="M78.1537 66.7077H75.9383V23.1384C75.9383 20.4307 73.7229 18.2154 71.0152 18.2154H63.2614C60.5537 7.13844 50.2152 -0.369248 38.646 0.984598C38.0306 1.23075 37.5383 1.72306 37.5383 2.46152C37.5383 3.19998 38.2768 3.56921 38.8922 3.56921C56.1229 1.59998 67.6922 20.9231 57.846 35.2L55.6306 33.4769C55.2614 33.2308 54.8922 33.1077 54.3998 33.3538C53.9075 33.4769 53.6614 33.9692 53.6614 34.3384L52.1845 42.8307C52.0614 43.3231 52.3075 43.8154 52.6768 44.0615C53.046 44.3077 53.5383 44.4307 54.0306 44.1846L61.6614 40.2461C61.9075 40.1231 62.1537 39.8769 62.2768 39.5077C62.5229 38.8923 62.2768 38.4 61.9075 38.0308L60.0614 36.6769C62.0306 33.8461 63.3845 30.5231 63.8768 27.0769H67.8152V60.5538H12.3075V26.9538H18.8306C20.6768 39.0154 31.7537 47.5077 43.8152 46.0308C44.4306 45.9077 44.9229 45.2923 44.9229 44.6769C44.7998 44.0615 44.1845 43.5692 43.5691 43.5692C26.3383 45.6615 14.8922 26.2154 24.7383 12.0615L26.8306 13.5384C27.1998 13.7846 27.5691 13.9077 28.0614 13.6615C28.4306 13.5384 28.7998 13.1692 28.7998 12.6769L30.2768 4.1846C30.3998 3.69229 30.1537 3.19998 29.7845 2.95383C29.4152 2.70768 28.9229 2.5846 28.4306 2.83075L20.9229 7.01537C20.5537 7.26152 20.3075 7.63075 20.3075 7.99998C20.3075 8.36921 20.4306 8.86152 20.7998 9.10767L22.7691 10.5846C21.1691 12.9231 19.9383 15.5077 19.3229 18.3384H8.98446C6.27677 18.3384 4.06139 20.5538 4.06139 23.2615V66.8307H1.846C1.10754 66.8307 0.615234 67.3231 0.615234 68.0615V71.8769C0.615234 75.9384 3.93831 79.2615 7.99985 79.2615H72.1229C76.1845 79.2615 79.5075 75.9384 79.5075 71.8769V68.0615C79.3845 67.3231 78.8922 66.7077 78.1537 66.7077ZM55.0152 40.6154L55.7537 36.6769L58.5845 38.7692L55.0152 40.6154ZM27.446 6.39998L26.7075 10.4615L23.7537 8.36921L27.446 6.39998ZM6.52293 23.1384C6.52293 21.7846 7.63062 20.6769 8.98446 20.6769H18.8306C18.7075 21.9077 18.5845 23.1384 18.7075 24.4923H11.0768C10.3383 24.4923 9.846 24.9846 9.846 25.7231V61.6615C9.846 62.4 10.3383 62.8923 11.0768 62.8923H68.7999C69.5383 62.8923 70.0306 62.4 70.0306 61.6615V25.7231C70.0306 24.9846 69.5383 24.4923 68.7999 24.4923H63.8768C63.8768 23.2615 63.8768 21.9077 63.7537 20.6769H71.0152C72.3691 20.6769 73.4768 21.7846 73.4768 23.1384V66.7077H49.5998C49.1075 66.7077 48.6152 66.9538 48.4922 67.4461L47.5075 69.7846H32.4922L32.246 69.1692L31.5075 67.3231C31.2614 66.8307 30.8922 66.5846 30.3998 66.5846H6.52293V23.1384ZM76.9229 71.7538C76.9229 74.4615 74.7075 76.6769 71.9998 76.6769H7.99985C5.29216 76.6769 3.07677 74.4615 3.07677 71.7538V69.1692C11.446 69.1692 17.5998 69.1692 29.5383 69.1692L29.9075 70.0307L30.5229 71.5077C30.7691 72 31.1383 72.2461 31.6306 72.2461H48.246C48.7383 72.2461 49.2306 72 49.3537 71.5077L50.3383 69.1692C58.2152 69.1692 64.7383 69.1692 76.7999 69.1692V71.7538H76.9229Z" fill="#3F3F3F"/>
<path d="M28.3074 18.0923C28.3074 18.4616 28.5536 18.7077 28.7997 18.9539L30.892 20.677C30.892 20.677 30.892 20.677 30.892 20.8L28.1844 21.1693C27.8151 21.1693 27.569 21.4154 27.3228 21.6616C27.0767 21.9077 27.0767 22.277 27.0767 22.5231L27.692 28.3077C27.692 28.677 27.9382 28.9231 28.1844 29.1693C28.4305 29.4154 28.7997 29.4154 29.0459 29.4154L31.7536 29.0462C31.7536 29.0462 31.7536 29.0462 31.7536 29.1693L30.0305 31.2616C29.7844 31.5077 29.7844 31.877 29.7844 32.1231C29.7844 32.3693 30.0305 32.7385 30.2767 32.9846L34.8305 36.5539C35.3228 36.9231 36.1844 36.9231 36.5536 36.3077L38.2767 34.2154C38.2767 34.2154 38.2767 34.2154 38.3997 34.2154L38.769 36.9231C38.892 37.5385 39.3844 38.0308 39.9997 38.0308H40.1228L45.9074 37.4154C46.2767 37.4154 46.5228 37.1693 46.769 36.9231C47.0151 36.677 47.0151 36.3077 47.0151 36.0616L46.6459 33.3539L48.7382 35.077C49.2305 35.4462 50.092 35.4462 50.4613 34.8308L54.0305 30.277C54.2767 30.0308 54.2767 29.6616 54.2767 29.4154C54.2767 29.0462 54.0305 28.8 53.7844 28.5539L51.692 26.5847C51.692 26.5847 51.692 26.5847 51.692 26.4616C54.769 26.0923 54.6459 26.2154 55.0151 25.9693C55.3844 25.7231 55.5074 25.2308 55.5074 24.8616C54.769 18.4616 54.892 19.2 54.892 19.077C54.892 18.5847 55.0151 17.6 50.8305 18.3385C50.8305 18.3385 50.8305 18.3385 50.8305 18.2154L52.5536 16.1231C52.9228 15.6308 52.9228 14.7693 52.3074 14.4L47.7536 10.8308C47.2613 10.4616 46.3997 10.4616 46.0305 11.077L44.3074 13.1693C44.3074 13.1693 44.3074 13.1693 44.1844 13.1693L43.8151 10.4616C43.692 9.84619 43.0767 9.35388 42.4613 9.35388L36.6767 9.96927C36.3074 9.96927 36.0613 10.2154 35.8151 10.4616C35.8151 10.7077 35.692 11.077 35.692 11.3231L36.0613 14.0308L33.969 12.3077C33.4767 11.9385 32.6151 11.9385 32.2459 12.5539L28.5536 17.2308C28.3074 17.477 28.1844 17.7231 28.3074 18.0923ZM33.2305 15.1385L35.0767 16.6154C35.4459 16.9847 36.0613 16.9847 36.5536 16.6154C37.0459 16.2462 37.4151 16.1231 37.7844 15.877C38.2767 15.6308 38.6459 15.1385 38.5228 14.6462L38.2767 12.3077L41.5997 11.9385L41.8459 14.277C41.969 14.7693 42.3382 15.2616 42.8305 15.3847C43.3228 15.5077 43.692 15.6308 44.3074 15.7539C44.7997 16 45.4151 15.7539 45.6613 15.3847L47.1382 13.5385L49.7228 15.6308L48.2459 17.477C47.8767 17.8462 47.8767 18.4616 48.2459 18.9539C48.8613 19.9385 48.8613 20.3077 49.2305 20.5539C49.4767 20.8 49.8459 20.9231 50.2151 20.9231L52.5536 20.677C52.6767 22.1539 52.7997 23.2616 52.9228 24L50.5844 24.2462C50.092 24.3693 49.5997 24.7385 49.4767 25.2308C49.4767 25.477 49.3536 26.0923 49.1074 26.5847C48.8613 27.077 49.1074 27.6923 49.4767 27.9385L51.3228 29.4154L49.2305 32L47.3844 30.5231C47.0151 30.1539 46.3997 30.1539 45.9074 30.5231C45.5382 30.7693 45.0459 31.0154 44.6767 31.2616C44.1844 31.5077 43.9382 32 43.9382 32.4923L44.1844 34.8308L40.8613 35.2L40.6151 32.8616C40.492 32.3693 40.1228 31.877 39.6305 31.7539C39.1382 31.6308 38.769 31.5077 38.1536 31.3847C38.0305 31.3847 37.9074 31.2616 37.7844 31.2616C37.4151 31.2616 37.0459 31.3847 36.7997 31.7539L35.3228 33.6L32.7382 31.5077L34.2151 29.6616C34.5844 29.2923 34.5844 28.677 34.2151 28.1847C33.969 27.6923 33.7228 27.3231 33.4767 26.9539C33.2305 26.4616 32.7382 26.0923 32.2459 26.2154L29.9074 26.4616L29.5382 23.1385L31.8767 22.8923C32.369 22.7693 32.8613 22.4 32.9844 21.9077C33.1074 21.4154 33.2305 20.9231 33.3536 20.4308C33.4767 19.9385 33.3536 19.3231 32.9844 19.077L31.1382 17.6L33.2305 15.1385Z" fill="#3F3F3F"/>
<path d="M41.3536 30.0308C44.9229 30.0308 47.8767 27.0769 47.8767 23.5077C47.8767 19.9385 44.9229 16.9846 41.3536 16.9846C37.7844 16.9846 34.8306 19.9385 34.8306 23.5077C34.8306 27.0769 37.7844 30.0308 41.3536 30.0308ZM41.3536 19.5692C43.569 19.5692 45.4152 21.4154 45.4152 23.6308C45.4152 25.8462 43.569 27.6923 41.3536 27.6923C39.1383 27.6923 37.2921 25.8462 37.2921 23.6308C37.2921 21.4154 39.1383 19.5692 41.3536 19.5692Z" fill="#3F3F3F"/>
</svg>
