<svg width="38" height="37" viewBox="0 0 38 37" fill="none" xmlns="http://www.w3.org/2000/svg">
<path d="M35.6669 26.5335V31.5335C35.6688 31.9976 35.5737 32.4571 35.3877 32.8824C35.2018 33.3077 34.929 33.6894 34.587 34.0032C34.245 34.317 33.8412 34.5559 33.4015 34.7046C32.9618 34.8533 32.4958 34.9086 32.0335 34.8668C26.9049 34.3095 21.9785 32.557 17.6502 29.7501C13.6233 27.1912 10.2091 23.7771 7.65021 19.7501C4.83351 15.4021 3.08062 10.4518 2.53355 5.30012C2.4919 4.83923 2.54667 4.37472 2.69438 3.93616C2.84209 3.4976 3.0795 3.0946 3.39149 2.75282C3.70348 2.41104 4.08322 2.13797 4.50653 1.95099C4.92984 1.76401 5.38745 1.66722 5.85021 1.66679H10.8502C11.6591 1.65883 12.4432 1.94525 13.0565 2.47268C13.6698 3.0001 14.0703 3.73253 14.1835 4.53345C14.3946 6.13356 14.786 7.70467 15.3502 9.21679C15.5745 9.81333 15.623 10.4616 15.4901 11.0849C15.3571 11.7082 15.0483 12.2803 14.6002 12.7335L12.4835 14.8501C14.8561 19.0227 18.311 22.4775 22.4835 24.8501L24.6002 22.7335C25.0534 22.2853 25.6255 21.9765 26.2487 21.8436C26.872 21.7107 27.5203 21.7592 28.1169 21.9835C29.629 22.5477 31.2001 22.9391 32.8002 23.1501C33.6098 23.2643 34.3492 23.6721 34.8778 24.2959C35.4063 24.9198 35.6872 25.7161 35.6669 26.5335Z" stroke="white" stroke-width="4" stroke-linecap="round" stroke-linejoin="round"/>
</svg>
