<svg width="80" height="43" viewBox="0 0 80 43" fill="white" xmlns="http://www.w3.org/2000/svg">
<path d="M6.71002 32.4888L7.69967 35.4009L3.96971 39.6099L23.2704 39.5886L1.94778 0.0126915H4.97002L26.6709 40.2919L25.5085 42.2463H0.986101L0 40.0783L6.71002 32.4888Z" fill="white"/>
<path d="M8.35645 0.0124626H11.372L32.2253 38.8154L51.6015 2.63866H37.063L39.1742 6.60926L37.6034 9.31094L33.595 1.84703L34.7006 0.0124626H53.8006L54.9439 1.93494L45.8212 19.0246L56.3389 38.7652L77.0093 3.05176e-05L80.0004 0.0124626L57.5359 42.2426H55.1889L44.3036 21.8581L33.4001 42.2426H31.0536L8.35645 0.0124626Z" fill="white"/>
</svg>
