<svg width="25" height="24" viewBox="0 0 25 24" fill="none" xmlns="http://www.w3.org/2000/svg">
<path d="M21.1008 10C21.1008 17 12.0577 23 12.0577 23C12.0577 23 3.01465 17 3.01465 10C3.01465 7.61305 3.9674 5.32387 5.6633 3.63604C7.3592 1.94821 9.65934 1 12.0577 1C14.4561 1 16.7562 1.94821 18.4521 3.63604C20.148 5.32387 21.1008 7.61305 21.1008 10Z" stroke="#3F3F3F" stroke-width="2" stroke-linecap="round" stroke-linejoin="round"/>
<path d="M12.0573 13C13.7221 13 15.0717 11.6569 15.0717 10C15.0717 8.34315 13.7221 7 12.0573 7C10.3925 7 9.04297 8.34315 9.04297 10C9.04297 11.6569 10.3925 13 12.0573 13Z" stroke="#3F3F3F" stroke-width="2" stroke-linecap="round" stroke-linejoin="round"/>
</svg>
