<svg width="24" height="24" viewBox="0 0 24 24" fill="none" xmlns="http://www.w3.org/2000/svg">
<g clip-path="url(#clip0)">
<path d="M15.8424 2.53857C15.477 2.05985 14.8358 1.84311 14.2335 2.03915L4.19503 5.30656C3.59272 5.50261 3.22098 6.04905 3.21222 6.64956L3.17069 12.7308L5.65036 20.0275C5.82084 20.5291 6.37098 20.8059 6.8729 20.6425L7.78549 20.3455C8.28741 20.1821 8.5586 19.638 8.38812 19.1364L8.07816 18.2243L19.0292 14.6598L19.3392 15.5719C19.5096 16.0736 20.0598 16.3503 20.5617 16.187L21.4743 15.8899C21.9762 15.7266 22.2474 15.1825 22.0769 14.6808L19.5973 7.38413L15.8424 2.53857ZM5.13436 7.02677L14.5249 3.97026L16.4744 6.48605L5.11273 10.1842L5.13436 7.02677ZM19.3219 12.5386L6.54566 16.6971L4.99586 12.1367L17.7721 7.9782L19.3219 12.5386Z" fill="#3F3F3F"/>
<path d="M8.16358 14.9078C8.91564 14.661 9.31871 13.8448 9.06384 13.0846C8.80898 12.3245 7.99271 11.9084 7.24064 12.1552C6.48858 12.402 6.08551 13.2183 6.34037 13.9784C6.59524 14.7385 7.41151 15.1546 8.16358 14.9078Z" fill="#3F3F3F"/>
<path d="M16.8862 12.6915C17.6383 12.4447 18.0414 11.6285 17.7865 10.8683C17.5316 10.1082 16.7154 9.69207 15.9633 9.93887C15.2112 10.1857 14.8082 11.0019 15.063 11.7621C15.3179 12.5222 16.1342 12.9383 16.8862 12.6915Z" fill="#3F3F3F"/>
<path d="M13.7659 21.4549L17.5908 20.2845L17.0056 18.372L23.6208 19.485L19.7959 20.6555L20.3811 22.5679L13.7659 21.4549Z" fill="#3F3F3F"/>
</g>
<defs>
<clipPath id="clip0">
<rect width="24" height="24" fill="white"/>
</clipPath>
</defs>
</svg>
