<svg width="24" height="24" viewBox="0 0 24 24" fill="none" xmlns="http://www.w3.org/2000/svg">
<path d="M20.8313 2.64014H6.35933C5.66329 2.64011 4.99541 2.91495 4.501 3.40487C4.00659 3.89479 3.72565 4.56013 3.71933 5.25614L3.62333 15.4321H1.12733C0.93637 15.4321 0.753235 15.508 0.618209 15.643C0.483183 15.778 0.407326 15.9612 0.407326 16.1521V17.9041C0.400529 18.7981 0.742816 19.6594 1.36136 20.3048C1.97991 20.9503 2.82589 21.3289 3.71933 21.3601H16.1033C17.0135 21.3601 17.8865 20.9986 18.5301 20.3549C19.1737 19.7113 19.5353 18.8384 19.5353 17.9281V9.31214H22.8713C23.0623 9.31214 23.2454 9.23628 23.3804 9.10125C23.5155 8.96623 23.5913 8.78309 23.5913 8.59214V5.40014C23.5913 4.66814 23.3005 3.96612 22.7829 3.44852C22.2653 2.93092 21.5633 2.64014 20.8313 2.64014ZM3.83933 19.9201C3.31101 19.9201 2.80434 19.7103 2.43077 19.3367C2.0572 18.9631 1.84733 18.4564 1.84733 17.9281V16.8721H12.6473V17.9041C12.6438 18.6279 12.8707 19.334 13.2953 19.9201H3.83933ZM18.0713 17.9281C18.0713 18.4596 17.8602 18.9694 17.4844 19.3452C17.1085 19.721 16.5988 19.9321 16.0673 19.9321C15.5358 19.9321 15.0261 19.721 14.6503 19.3452C14.2745 18.9694 14.0633 18.4596 14.0633 17.9281V16.1521C14.0633 15.9612 13.9875 15.778 13.8524 15.643C13.7174 15.508 13.5343 15.4321 13.3433 15.4321H5.06333L5.15933 5.28014C5.15933 4.96188 5.28575 4.65665 5.5108 4.43161C5.73584 4.20656 6.04107 4.08014 6.35933 4.08014H18.4313C18.2098 4.48478 18.0943 4.93885 18.0953 5.40014L18.0713 17.9281ZM22.1513 7.87214H19.5353V5.40014C19.51 5.2135 19.5249 5.02361 19.579 4.84321C19.6331 4.66281 19.7252 4.49608 19.8491 4.35422C19.973 4.21237 20.1259 4.09867 20.2973 4.02076C20.4688 3.94286 20.655 3.90255 20.8433 3.90255C21.0317 3.90255 21.2178 3.94286 21.3893 4.02076C21.5608 4.09867 21.7136 4.21237 21.8375 4.35422C21.9614 4.49608 22.0535 4.66281 22.1076 4.84321C22.1618 5.02361 22.1767 5.2135 22.1513 5.40014V7.87214Z" fill="#3F3F3F"/>
<path d="M11.8553 6.64795H6.69531V8.08795H11.8553V6.64795Z" fill="#3F3F3F"/>
<path d="M16.1753 9.52832H6.69531V10.9683H16.1753V9.52832Z" fill="#3F3F3F"/>
<path d="M16.1753 12.4082H6.69531V13.8482H16.1753V12.4082Z" fill="#3F3F3F"/>
</svg>
