<svg width="24" height="24" viewBox="0 0 24 24" fill="none" xmlns="http://www.w3.org/2000/svg">
<path d="M21.4529 17.8101C21.4529 18.0468 21.4529 18.2835 21.4529 18.5203C21.4529 18.7617 21.4693 19.0078 21.4482 19.2492C21.46 19.1671 21.4717 19.0828 21.4811 19.0007C21.474 19.0523 21.46 19.1015 21.4412 19.1484C21.4717 19.0734 21.5045 18.9984 21.535 18.9234C21.5139 18.9703 21.4881 19.0124 21.4576 19.0523C21.5068 18.989 21.5561 18.9257 21.6053 18.8624C21.5795 18.8929 21.5514 18.921 21.5209 18.9468C21.5842 18.8976 21.6475 18.8484 21.7107 18.7992C21.6709 18.8296 21.6287 18.8554 21.5818 18.8765C21.6568 18.846 21.7318 18.8132 21.8068 18.7828C21.7576 18.8015 21.7107 18.8156 21.6592 18.8226C21.7412 18.8109 21.8256 18.7992 21.9076 18.7898C21.6381 18.8132 21.3592 18.7945 21.0873 18.7945C20.4732 18.7945 19.8592 18.7945 19.2428 18.7945C17.8412 18.7945 16.4373 18.7945 15.0357 18.7945C14.7123 18.7945 14.3889 18.7945 14.0654 18.7945C14.0654 19.4203 14.0654 20.0437 14.0654 20.6695C14.6209 20.6554 15.1271 20.3765 15.4178 19.8984C15.5748 19.6406 15.6381 19.3429 15.6381 19.0453C15.6381 18.7288 15.6381 18.4124 15.6381 18.0984C15.6381 17.1656 15.6193 16.221 15.2678 15.3421C14.9959 14.6601 14.6186 14.046 14.0889 13.5281C14.0256 14.0179 13.9623 14.5101 13.899 15C13.9436 14.9789 13.9881 14.9601 14.0326 14.9414C13.9576 14.9718 13.8826 15.0046 13.8076 15.0351C14.3842 14.7914 14.9936 14.6484 15.6123 14.564C15.5303 14.5757 15.4459 14.5875 15.3639 14.5968C16.2943 14.475 17.2506 14.475 18.1811 14.5968C18.099 14.5851 18.0146 14.5734 17.9326 14.564C18.5467 14.646 19.1514 14.789 19.7232 15.0304C19.6482 15 19.5732 14.9671 19.4982 14.9367C19.8592 15.0914 20.2014 15.2812 20.5131 15.5226C20.4498 15.4734 20.3865 15.4242 20.3232 15.375C20.56 15.5601 20.7756 15.7734 20.9607 16.0101C20.9115 15.9468 20.8623 15.8835 20.8131 15.8203C20.9936 16.057 21.1436 16.3124 21.2607 16.5867C21.2303 16.5117 21.1975 16.4367 21.167 16.3617C21.3053 16.6921 21.392 17.0367 21.4412 17.3906C21.4295 17.3085 21.4178 17.2242 21.4084 17.1421C21.4389 17.3624 21.4506 17.5851 21.4529 17.8101C21.4553 18.2999 21.8818 18.771 22.3904 18.7476C22.8967 18.7242 23.3303 18.3351 23.3279 17.8101C23.3256 16.9546 23.1498 16.1015 22.742 15.3445C22.374 14.6625 21.8068 14.1023 21.1576 13.6875C20.4709 13.2492 19.6623 12.975 18.8654 12.825C17.942 12.6539 16.9975 12.5976 16.06 12.6562C15.5115 12.6914 14.9607 12.7593 14.424 12.8789C13.9154 12.9914 13.4326 13.1648 12.9592 13.3804C12.699 13.4976 12.5467 13.8 12.5115 14.0648C12.4717 14.3554 12.5561 14.6437 12.7693 14.8523C12.9053 14.9835 13.0318 15.1242 13.149 15.2742C13.0998 15.2109 13.0506 15.1476 13.0014 15.0843C13.2193 15.3656 13.3975 15.6726 13.5357 16.0007C13.5053 15.9257 13.4725 15.8507 13.442 15.7757C13.599 16.1554 13.6998 16.5539 13.7537 16.9593C13.742 16.8773 13.7303 16.7929 13.7209 16.7109C13.7795 17.1703 13.7701 17.632 13.7701 18.096C13.7701 18.3257 13.7701 18.5554 13.7701 18.7851C13.7701 18.9187 13.7795 19.0593 13.7631 19.1929C13.7748 19.1109 13.7865 19.0265 13.7959 18.9445C13.7865 18.996 13.7725 19.0453 13.7537 19.0945C13.7842 19.0195 13.817 18.9445 13.8475 18.8695C13.8264 18.9163 13.8006 18.9609 13.7701 19.0031C13.8193 18.9398 13.8686 18.8765 13.9178 18.8132C13.8803 18.8624 13.8381 18.9046 13.7889 18.9421C13.8521 18.8929 13.9154 18.8437 13.9787 18.7945C13.9365 18.8249 13.892 18.8484 13.8451 18.8718C13.9201 18.8413 13.9951 18.8085 14.0701 18.7781C14.0209 18.7968 13.9717 18.8109 13.9201 18.8203C14.0021 18.8085 14.0865 18.7968 14.1686 18.7874C14.1357 18.7921 14.1053 18.7945 14.0725 18.7945C13.8287 18.8015 13.585 18.8953 13.4092 19.0687C13.2475 19.2304 13.1232 19.4976 13.135 19.732C13.1584 20.2406 13.5475 20.6695 14.0725 20.6695C14.4568 20.6695 14.8412 20.6695 15.2279 20.6695C16.0881 20.6695 16.9506 20.6695 17.8107 20.6695C18.692 20.6695 19.5756 20.6695 20.4568 20.6695C20.9162 20.6695 21.3779 20.6742 21.8373 20.6695C22.2334 20.6648 22.6201 20.5171 22.9014 20.2359C23.2061 19.9312 23.335 19.5257 23.335 19.1015C23.335 18.7054 23.335 18.3093 23.335 17.9156C23.335 17.8804 23.335 17.8453 23.335 17.8124C23.335 17.3226 22.9037 16.8515 22.3975 16.8749C21.8818 16.8937 21.4529 17.2828 21.4529 17.8101Z" fill="#3F3F3F"/>
<path d="M18.3426 8.9792C18.3426 9.08702 18.3355 9.19483 18.3215 9.30264C18.3332 9.22061 18.3449 9.13623 18.3543 9.0542C18.3238 9.27452 18.2676 9.48545 18.1832 9.6917C18.2137 9.6167 18.2465 9.5417 18.277 9.4667C18.1926 9.66592 18.0848 9.85108 17.9559 10.0245C18.0051 9.96124 18.0543 9.89795 18.1035 9.83467C17.9652 10.0128 17.8082 10.1698 17.6301 10.3081C17.6934 10.2589 17.7566 10.2097 17.8199 10.1605C17.6465 10.2917 17.4613 10.3972 17.2621 10.4815C17.3371 10.4511 17.4121 10.4183 17.4871 10.3878C17.2832 10.4722 17.0699 10.5284 16.8496 10.5589C16.9316 10.5472 17.016 10.5355 17.098 10.5261C16.8824 10.5519 16.6668 10.5519 16.4512 10.5261C16.5332 10.5378 16.6176 10.5495 16.6996 10.5589C16.4793 10.5284 16.2684 10.4722 16.0621 10.3878C16.1371 10.4183 16.2121 10.4511 16.2871 10.4815C16.0879 10.3972 15.9027 10.2894 15.7293 10.1605C15.7926 10.2097 15.8559 10.2589 15.9191 10.3081C15.741 10.1698 15.584 10.0128 15.4457 9.83467C15.4949 9.89795 15.5441 9.96124 15.5934 10.0245C15.4621 9.85108 15.3566 9.66592 15.2723 9.4667C15.3027 9.5417 15.3355 9.6167 15.366 9.6917C15.2816 9.4878 15.2254 9.27452 15.1949 9.0542C15.2066 9.13623 15.2184 9.22061 15.2277 9.30264C15.202 9.08702 15.202 8.87139 15.2277 8.65576C15.216 8.7378 15.2043 8.82217 15.1949 8.9042C15.2254 8.68389 15.2816 8.47295 15.366 8.2667C15.3355 8.3417 15.3027 8.4167 15.2723 8.4917C15.3566 8.29248 15.4645 8.10733 15.5934 7.93389C15.5441 7.99717 15.4949 8.06045 15.4457 8.12373C15.584 7.94561 15.741 7.78858 15.9191 7.65029C15.8559 7.69951 15.7926 7.74873 15.7293 7.79795C15.9027 7.6667 16.0879 7.56123 16.2871 7.47686C16.2121 7.50733 16.1371 7.54014 16.0621 7.57061C16.266 7.48623 16.4793 7.42998 16.6996 7.39951C16.6176 7.41123 16.5332 7.42295 16.4512 7.43233C16.6668 7.40654 16.8824 7.40654 17.098 7.43233C17.016 7.42061 16.9316 7.40889 16.8496 7.39951C17.0699 7.42998 17.2809 7.48623 17.4871 7.57061C17.4121 7.54014 17.3371 7.50733 17.2621 7.47686C17.4613 7.56123 17.6465 7.66904 17.8199 7.79795C17.7566 7.74873 17.6934 7.69951 17.6301 7.65029C17.8082 7.78858 17.9652 7.94561 18.1035 8.12373C18.0543 8.06045 18.0051 7.99717 17.9559 7.93389C18.0871 8.10733 18.1926 8.29248 18.277 8.4917C18.2465 8.4167 18.2137 8.3417 18.1832 8.2667C18.2676 8.47061 18.3238 8.68389 18.3543 8.9042C18.3426 8.82217 18.3309 8.7378 18.3215 8.65576C18.3332 8.76358 18.3402 8.87139 18.3426 8.9792C18.3449 9.22061 18.4457 9.47139 18.6168 9.64249C18.7785 9.8042 19.0457 9.92842 19.2801 9.9167C19.7863 9.89327 20.2199 9.5042 20.2176 8.9792C20.2129 8.3042 20.0184 7.60108 19.6223 7.04795C19.3996 6.73623 19.1629 6.4831 18.8605 6.24873C18.5629 6.01904 18.2512 5.85732 17.8973 5.72607C17.2551 5.48701 16.5004 5.47763 15.8441 5.66279C15.2113 5.84092 14.5949 6.21357 14.1754 6.72451C13.9035 7.05498 13.716 7.37373 13.5566 7.76748C13.4277 8.08623 13.3691 8.42373 13.341 8.76592C13.2848 9.44092 13.4699 10.1628 13.8168 10.7417C14.1543 11.3019 14.6699 11.7987 15.2676 12.0706C15.4551 12.155 15.6449 12.237 15.8418 12.2933C16.0457 12.3495 16.2543 12.3776 16.4629 12.4011C16.8098 12.4433 17.1613 12.4058 17.5012 12.3401C18.1504 12.2136 18.7785 11.8526 19.2355 11.3792C19.6949 10.9034 20.0465 10.273 20.1496 9.61436C20.1824 9.40342 20.2105 9.19248 20.2129 8.97686C20.2152 8.48701 19.7793 8.01592 19.2754 8.03936C18.7691 8.06514 18.3449 8.4542 18.3426 8.9792Z" fill="#3F3F3F"/>
<path d="M13.765 17.4917C13.765 17.7706 13.765 18.0495 13.765 18.3284C13.765 18.612 13.7932 18.9097 13.758 19.1932C13.7697 19.1112 13.7814 19.0268 13.7908 18.9448C13.7814 18.9964 13.7674 19.0456 13.7486 19.0948C13.7791 19.0198 13.8119 18.9448 13.8424 18.8698C13.8213 18.9167 13.7955 18.9612 13.765 19.0034C13.8143 18.9401 13.8635 18.8768 13.9127 18.8136C13.8752 18.8628 13.833 18.905 13.7838 18.9425C13.8471 18.8932 13.9104 18.844 13.9736 18.7948C13.9314 18.8253 13.8869 18.8487 13.84 18.8722C13.915 18.8417 13.99 18.8089 14.065 18.7784C14.0158 18.7972 13.9666 18.8112 13.915 18.8206C13.9971 18.8089 14.0814 18.7972 14.1635 18.7878C14.0322 18.8042 13.8963 18.7948 13.7674 18.7948C13.4838 18.7948 13.2025 18.7948 12.9189 18.7948C11.9744 18.7948 11.0275 18.7948 10.083 18.7948C8.93457 18.7948 7.78848 18.7948 6.64004 18.7948C5.65098 18.7948 4.66191 18.7948 3.67285 18.7948C3.2041 18.7948 2.73301 18.8018 2.26191 18.7948C2.22441 18.7948 2.18926 18.7925 2.15176 18.7878C2.23379 18.7995 2.31816 18.8112 2.4002 18.8206C2.34863 18.8112 2.29941 18.7972 2.2502 18.7784C2.3252 18.8089 2.4002 18.8417 2.4752 18.8722C2.42832 18.8511 2.38379 18.8253 2.3416 18.7948C2.40488 18.844 2.46816 18.8932 2.53145 18.9425C2.48223 18.905 2.44004 18.8628 2.40254 18.8136C2.45176 18.8768 2.50098 18.9401 2.5502 19.0034C2.51973 18.9612 2.49629 18.9167 2.47285 18.8698C2.50332 18.9448 2.53613 19.0198 2.5666 19.0948C2.54785 19.0456 2.53379 18.9964 2.52441 18.9448C2.53613 19.0268 2.54785 19.1112 2.55723 19.1932C2.52441 18.9261 2.5502 18.6448 2.5502 18.3753C2.5502 18.0823 2.5502 17.7917 2.5502 17.4987C2.5502 17.2315 2.5666 16.9667 2.60176 16.7018C2.59004 16.7839 2.57832 16.8683 2.56895 16.9503C2.6252 16.5472 2.72598 16.1511 2.88066 15.7737C2.8502 15.8487 2.81738 15.9237 2.78691 15.9987C2.92285 15.6776 3.09629 15.3753 3.30957 15.0987C3.26035 15.162 3.21113 15.2253 3.16191 15.2886C3.38223 15.005 3.64004 14.7518 3.92363 14.5315C3.86035 14.5808 3.79707 14.63 3.73379 14.6792C4.09473 14.4026 4.49082 14.1823 4.90801 14.0065C4.83301 14.037 4.75801 14.0698 4.68301 14.1003C5.3416 13.8261 6.0377 13.6597 6.74316 13.5636C6.66113 13.5753 6.57676 13.587 6.49473 13.5964C7.5916 13.4487 8.7166 13.4511 9.81348 13.5964C9.73145 13.5847 9.64707 13.5729 9.56504 13.5636C10.2775 13.6597 10.9807 13.8284 11.6439 14.1073C11.5689 14.0769 11.4939 14.044 11.4189 14.0136C11.8314 14.1894 12.2229 14.4073 12.5791 14.6792C12.5158 14.63 12.4525 14.5808 12.3893 14.5315C12.6705 14.7495 12.9236 14.9979 13.1439 15.2768C13.0947 15.2136 13.0455 15.1503 12.9963 15.087C13.2143 15.3683 13.3924 15.6753 13.5307 16.0034C13.5002 15.9284 13.4674 15.8534 13.4369 15.7784C13.5939 16.1581 13.6947 16.5565 13.7486 16.962C13.7369 16.88 13.7252 16.7956 13.7158 16.7136C13.7486 16.9714 13.7627 17.2315 13.765 17.4917C13.7674 17.9815 14.1963 18.4526 14.7025 18.4292C15.2088 18.4057 15.6424 18.0167 15.64 17.4917C15.6377 16.4159 15.3963 15.3073 14.801 14.3979C14.2104 13.4979 13.3525 12.8136 12.3658 12.3917C11.8455 12.169 11.3158 11.9909 10.7604 11.8737C10.1697 11.7495 9.56269 11.6745 8.96035 11.6394C7.98066 11.5808 7.00098 11.6347 6.03301 11.787C5.20098 11.9183 4.39473 12.162 3.64004 12.5347C2.96973 12.8651 2.33457 13.3362 1.86816 13.9245C1.60566 14.255 1.37129 14.5948 1.19785 14.9815C1.01738 15.3917 0.869727 15.8065 0.790039 16.2495C0.677539 16.8893 0.672852 17.5222 0.672852 18.169C0.672852 18.4409 0.672852 18.7104 0.672852 18.9823C0.672852 19.055 0.672852 19.1229 0.679883 19.1956C0.705664 19.4534 0.752539 19.6597 0.883789 19.8893C1.01035 20.1097 1.18379 20.2761 1.39004 20.419C1.72285 20.6487 2.1002 20.6722 2.48223 20.6722C3.22754 20.6722 3.97051 20.6722 4.71582 20.6722C5.8877 20.6722 7.06191 20.6722 8.23379 20.6722C9.39629 20.6722 10.5611 20.6722 11.7236 20.6722C12.4385 20.6722 13.1557 20.6722 13.8705 20.6722C13.9291 20.6722 13.9854 20.6722 14.0439 20.6722C14.5947 20.6675 15.0705 20.4026 15.3799 19.9526C15.6049 19.6268 15.633 19.2495 15.633 18.8698C15.633 18.5839 15.633 18.2979 15.633 18.0097C15.633 17.8386 15.633 17.6651 15.633 17.494C15.633 17.0042 15.2018 16.5331 14.6955 16.5565C14.1939 16.5753 13.765 16.9667 13.765 17.4917Z" fill="#3F3F3F"/>
<path d="M10.224 7.27519C10.224 7.40644 10.2146 7.53534 10.1982 7.66425C10.2099 7.58222 10.2216 7.49784 10.231 7.41581C10.1935 7.68769 10.1232 7.95019 10.0177 8.20331C10.0482 8.12831 10.081 8.05331 10.1115 7.97831C10.0083 8.21503 9.87944 8.43534 9.72241 8.63925C9.77163 8.57597 9.82085 8.51269 9.87007 8.44941C9.71304 8.65097 9.53257 8.83144 9.331 8.98847C9.39429 8.93925 9.45757 8.89003 9.52085 8.84081C9.31694 8.99784 9.09663 9.12675 8.85991 9.22987C8.93491 9.19941 9.00991 9.16659 9.08491 9.13612C8.83178 9.24159 8.56928 9.31425 8.29741 9.34941C8.37944 9.33769 8.46382 9.32597 8.54585 9.31659C8.28569 9.34941 8.02553 9.34941 7.76772 9.31659C7.84975 9.32831 7.93413 9.34003 8.01616 9.34941C7.74428 9.31191 7.48178 9.24159 7.22866 9.13612C7.30366 9.16659 7.37866 9.19941 7.45366 9.22987C7.21694 9.12675 6.99663 8.99784 6.79272 8.84081C6.856 8.89003 6.91928 8.93925 6.98256 8.98847C6.781 8.83144 6.60053 8.65097 6.4435 8.44941C6.49272 8.51269 6.54194 8.57597 6.59116 8.63925C6.43412 8.43534 6.30522 8.21503 6.20209 7.97831C6.23256 8.05331 6.26537 8.12831 6.29584 8.20331C6.19037 7.95019 6.11772 7.68769 6.08256 7.41581C6.09428 7.49784 6.106 7.58222 6.11537 7.66425C6.08256 7.40409 6.08256 7.14394 6.11537 6.88612C6.10366 6.96816 6.09194 7.05253 6.08256 7.13456C6.12006 6.86269 6.19037 6.60019 6.29584 6.34706C6.26537 6.42206 6.23256 6.49706 6.20209 6.57206C6.30522 6.33534 6.43412 6.11503 6.59116 5.91112C6.54194 5.97441 6.49272 6.03769 6.4435 6.10097C6.60053 5.89941 6.781 5.71894 6.98256 5.56191C6.91928 5.61112 6.856 5.66034 6.79272 5.70956C6.99663 5.55253 7.21694 5.42362 7.45366 5.3205C7.37866 5.35097 7.30366 5.38378 7.22866 5.41425C7.48178 5.30878 7.74428 5.23612 8.01616 5.20097C7.93413 5.21269 7.84975 5.22441 7.76772 5.23378C8.02788 5.20097 8.28803 5.20097 8.54585 5.23378C8.46382 5.22206 8.37944 5.21034 8.29741 5.20097C8.56928 5.23847 8.83178 5.30878 9.08491 5.41425C9.00991 5.38378 8.93491 5.35097 8.85991 5.3205C9.09663 5.42362 9.31694 5.55253 9.52085 5.70956C9.45757 5.66034 9.39429 5.61112 9.331 5.56191C9.53257 5.71894 9.71304 5.89941 9.87007 6.10097C9.82085 6.03769 9.77163 5.97441 9.72241 5.91112C9.87944 6.11503 10.0083 6.33534 10.1115 6.57206C10.081 6.49706 10.0482 6.42206 10.0177 6.34706C10.1232 6.60019 10.1958 6.86269 10.231 7.13456C10.2193 7.05253 10.2076 6.96816 10.1982 6.88612C10.2169 7.01503 10.224 7.14394 10.224 7.27519C10.2263 7.51659 10.3271 7.76737 10.4982 7.93847C10.6599 8.10019 10.9271 8.22441 11.1615 8.21269C11.6677 8.18925 12.1013 7.80019 12.099 7.27519C12.0943 6.49472 11.8646 5.68612 11.4076 5.04862C11.1334 4.66894 10.838 4.36894 10.4677 4.08769C10.1583 3.85331 9.81616 3.68691 9.45288 3.55331C8.70991 3.27675 7.84272 3.26503 7.08334 3.48066C6.35678 3.68691 5.656 4.11581 5.17319 4.70175C4.87084 5.06972 4.65287 5.43769 4.47475 5.87831C4.32475 6.24628 4.25678 6.63534 4.22396 7.03144C4.16068 7.81425 4.37162 8.64159 4.77943 9.30956C5.17084 9.95175 5.76147 10.5143 6.45053 10.826C6.66147 10.9221 6.87709 11.0111 7.09975 11.0744C7.32475 11.1377 7.55444 11.1682 7.78413 11.1939C8.18491 11.2432 8.59038 11.2057 8.98413 11.1283C10.4982 10.833 11.8013 9.50644 12.031 7.97597C12.0662 7.74159 12.0966 7.50956 12.099 7.27284C12.1013 6.783 11.6654 6.31191 11.1615 6.33534C10.6529 6.36112 10.2287 6.75019 10.224 7.27519Z" fill="#3F3F3F"/>
</svg>
