<svg width="24" height="24" viewBox="0 0 24 24" fill="none" xmlns="http://www.w3.org/2000/svg">
<path d="M22.6003 11.4027C22.7224 11.0708 22.6245 10.698 22.3552 10.4688L12.5472 2.12304C12.232 1.85482 11.7688 1.85482 11.4536 2.12304L1.64563 10.4688C1.37628 10.698 1.27846 11.0708 1.40057 11.4027C1.52263 11.7346 1.8388 11.9551 2.19243 11.9551H3.82316V19.3593C3.82316 20.8585 5.0428 22.0781 6.54191 22.0781H9.71732H14.2836H17.6389C19.138 22.0781 20.3577 20.8585 20.3577 19.3593V11.9552H21.8084C22.1621 11.9552 22.4782 11.7346 22.6003 11.4027ZM12.0004 3.87349L19.5148 10.2677H4.48597L12.0004 3.87349ZM10.561 20.3906V17.5526C10.561 16.984 11.0236 16.5214 11.5923 16.5214H12.4085C12.9771 16.5214 13.4398 16.984 13.4398 17.5526V20.3906H10.561ZM18.6702 19.3593C18.6702 19.928 18.2076 20.3906 17.6389 20.3906H15.1273V17.5526C15.1273 16.0535 13.9077 14.8339 12.4086 14.8339H11.5923C10.0932 14.8339 8.87357 16.0535 8.87357 17.5526V20.3906H6.54191C5.97327 20.3906 5.51066 19.928 5.51066 19.3593V11.9552H18.6702V19.3593Z" fill="#3F3F3F"/>
</svg>
