<svg width="24" height="24" viewBox="0 0 24 24" fill="none" xmlns="http://www.w3.org/2000/svg">
<path d="M12 7V3H2V21H22V7H12ZM10 19H4V17H10V19ZM10 15H4V13H10V15ZM10 11H4V9H10V11ZM10 7H4V5H10V7ZM20 19H12V9H20V19ZM18 11H14V13H18V11ZM18 15H14V17H18V15Z" fill="#3F3F3F"/>
<rect width="24" height="24" fill="white"/>
<path d="M4.55444 11.8591C4.49994 7.99975 7.49995 3.49975 12.8814 3.12536C15.9999 1.99975 18.2109 3.65993 18.6848 4.72909C20.0002 5.97475 21.0357 7.95406 21.5544 10.8591" stroke="#3F3F3F" stroke-width="1.5"/>
<path d="M4.55469 11.8589V12.8589C6.22135 14.3589 10.5547 17.2589 14.5547 16.8589C17.0547 16.3589 21.9547 14.4589 21.5547 10.8589" stroke="#3F3F3F" stroke-width="1.5"/>
<path d="M4.5545 12.9995C3.5545 13.9995 1.6545 16.1995 2.0545 16.9995C2.5545 17.9995 5.94519 20.2615 9.54866 19.7467C13.0487 19.2467 21.9942 16.2467 22.4942 13.2467C22.6608 12.5801 22.5 11.9995 22 11.4995L21.5545 10.9995" stroke="#3F3F3F" stroke-width="1.5"/>
<path d="M7.03682 14.9998C6.79148 11.1111 7.88975 5.08835 14.5 2.80469" stroke="#3F3F3F" stroke-width="1.5"/>
<path d="M10.0356 16C9.77949 11.9728 10.7543 5.56522 18 4" stroke="#3F3F3F" stroke-width="1.5"/>
</svg>
