<svg width="24" height="24" viewBox="0 0 24 24" fill="none" xmlns="http://www.w3.org/2000/svg">
<path d="M18.4805 8.63993H17.2805V6.40793C17.2805 5.00759 16.7243 3.6646 15.7341 2.67441C14.7439 1.68421 13.4009 1.12793 12.0005 1.12793C10.6002 1.12793 9.25722 1.68421 8.26702 2.67441C7.27683 3.6646 6.72055 5.00759 6.72055 6.40793V8.63993H5.52055C5.26594 8.63993 5.02176 8.74107 4.84172 8.92111C4.66169 9.10114 4.56055 9.34532 4.56055 9.59993V19.1999C4.56149 19.3814 4.61385 19.5589 4.71155 19.7118C4.80924 19.8647 4.94828 19.9868 5.11255 20.0639L10.1285 22.4879C10.7122 22.7705 11.3521 22.9172 12.0005 22.9172C12.649 22.9172 13.2889 22.7705 13.8725 22.4879L18.8885 20.0639C19.0528 19.9868 19.1919 19.8647 19.2896 19.7118C19.3872 19.5589 19.4396 19.3814 19.4405 19.1999V9.59993C19.4405 9.34532 19.3394 9.10114 19.1594 8.92111C18.9793 8.74107 18.7352 8.63993 18.4805 8.63993ZM8.64055 6.40793C8.64055 5.5168 8.99455 4.66217 9.62467 4.03205C10.2548 3.40193 11.1094 3.04793 12.0005 3.04793C12.8917 3.04793 13.7463 3.40193 14.3764 4.03205C15.0065 4.66217 15.3605 5.5168 15.3605 6.40793V8.63993H8.64055V6.40793ZM17.5205 18.5999L13.0325 20.7599C12.7075 20.9189 12.3504 21.0016 11.9885 21.0016C11.6267 21.0016 11.2696 20.9189 10.9445 20.7599L6.48055 18.5999V10.5599H17.5205V18.5999Z" fill="#3F3F3F"/>
<path d="M12 17.2799C12.2546 17.2799 12.4988 17.1788 12.6789 16.9988C12.8589 16.8187 12.96 16.5745 12.96 16.3199V14.3999C12.96 14.1453 12.8589 13.9012 12.6789 13.7211C12.4988 13.5411 12.2546 13.4399 12 13.4399C11.7454 13.4399 11.5013 13.5411 11.3212 13.7211C11.1412 13.9012 11.04 14.1453 11.04 14.3999V16.3199C11.04 16.5745 11.1412 16.8187 11.3212 16.9988C11.5013 17.1788 11.7454 17.2799 12 17.2799Z" fill="#3F3F3F"/>
</svg>
