<svg width="24" height="24" viewBox="0 0 24 24" fill="none" xmlns="http://www.w3.org/2000/svg">
<path d="M6.5 11C6.5 10.4477 6.05228 10 5.5 10C4.94771 10 4.5 10.4477 4.5 11V16C4.5 16.5523 4.94771 17 5.5 17C6.05228 17 6.5 16.5523 6.5 16V11ZM12.5 11C12.5 10.4477 12.0523 10 11.5 10C10.9477 10 10.5 10.4477 10.5 11V16C10.5 16.5523 10.9477 17 11.5 17C12.0523 17 12.5 16.5523 12.5 16V11ZM21 20C21 19.4477 20.5523 19 20 19H3C2.44771 19 2 19.4477 2 20C2 20.5523 2.44772 21 3 21H20C20.5523 21 21 20.5523 21 20ZM18.5 11C18.5 10.4477 18.0523 10 17.5 10C16.9477 10 16.5 10.4477 16.5 11V16C16.5 16.5523 16.9477 17 17.5 17C18.0523 17 18.5 16.5523 18.5 16V11ZM11.0345 3.50479C11.3259 3.35155 11.6741 3.35155 11.9655 3.50479L16.71 6H6.29L11.0345 3.50479ZM11.9657 1.24513C11.6742 1.09169 11.3258 1.09169 11.0343 1.24513L2.53425 5.71881C2.2057 5.89174 2 6.23245 2 6.60373V7C2 7.55228 2.44772 8 3 8H20C20.5523 8 21 7.55228 21 7V6.60373C21 6.23245 20.7943 5.89174 20.4657 5.71881L11.9657 1.24513Z" fill="#3F3F3F"/>
</svg>
