<svg width="24" height="24" viewBox="0 0 24 24" fill="none" xmlns="http://www.w3.org/2000/svg">
<path d="M7.17226 6.64436C8.99944 6.64436 10.5008 5.14299 10.5008 3.31582C10.5008 1.48864 8.99944 0 7.17226 0C5.34509 0 3.85645 1.48864 3.85645 3.31582C3.85645 5.14299 5.34487 6.64436 7.17226 6.64436ZM7.17226 1.5119C8.17734 1.5119 8.97618 2.31096 8.97618 3.31582C8.97618 4.32068 8.17712 5.11996 7.17226 5.11996C6.1674 5.11996 5.36834 4.3209 5.36834 3.31582C5.36834 2.31074 6.16718 1.5119 7.17226 1.5119Z" fill="#3F3F3F"/>
<path d="M16.8278 6.64436C18.655 6.64436 20.1434 5.14299 20.1434 3.31582C20.1434 1.48864 18.655 0 16.8278 0C15.0006 0 13.499 1.48864 13.499 3.31582C13.499 5.14299 15.0006 6.64436 16.8278 6.64436ZM16.8278 1.5119C17.8326 1.5119 18.6317 2.31096 18.6317 3.31582C18.6317 4.32068 17.8326 5.11996 16.8278 5.11996C15.8227 5.11996 15.0236 4.3209 15.0236 3.31582C15.0236 2.31074 15.8227 1.5119 16.8278 1.5119Z" fill="#3F3F3F"/>
<path d="M8.69727 9.10878C8.69727 10.936 10.1986 12.4371 12.0258 12.4371C13.853 12.4371 15.3416 10.936 15.3416 9.10878C15.3416 7.28161 13.853 5.79297 12.0258 5.79297C10.1986 5.79297 8.69727 7.28161 8.69727 9.10878ZM12.0258 7.30486C13.0309 7.30486 13.8172 8.10393 13.8172 9.10878C13.8172 10.1139 13.0309 10.9127 12.0258 10.9127C11.0207 10.9127 10.2219 10.1136 10.2219 9.10878C10.2219 8.10393 11.0207 7.30486 12.0258 7.30486Z" fill="#3F3F3F"/>
<path d="M4.66912 20.0726V8.41031C4.66912 8.25497 4.7808 8.15624 4.93592 8.15624C5.35673 8.15492 5.69702 7.81244 5.69548 7.3914C5.69417 6.97235 5.35475 6.63315 4.93592 6.63184C3.96419 6.63184 3.15723 7.43858 3.15723 8.41031V20.0728C3.15723 21.0448 3.96419 21.8513 4.93592 21.8513H7.375V20.3269H4.93614C4.7808 20.3267 4.66912 20.2277 4.66912 20.0726Z" fill="#3F3F3F"/>
<path d="M19.0639 6.63184C18.6429 6.63031 18.3006 6.97038 18.2993 7.39141C18.2977 7.81222 18.6378 8.15471 19.0589 8.15624C19.0606 8.15624 19.0624 8.15624 19.0639 8.15624C19.2192 8.15624 19.318 8.25519 19.318 8.41031V20.0728C19.318 20.2279 19.2192 20.3269 19.0639 20.3269H16.6123V21.8513H19.0641C20.0361 21.8513 20.8426 21.0446 20.8426 20.0728V8.41053C20.8426 7.43858 20.0359 6.63184 19.0639 6.63184Z" fill="#3F3F3F"/>
<path d="M14.2611 13.1231C14.0601 13.1231 13.8578 13.1982 13.7148 13.339C13.5717 13.4803 13.4864 13.6718 13.4864 13.8726C13.4864 14.0736 13.5717 14.2781 13.7148 14.4189C13.8578 14.5602 14.0601 14.6377 14.2611 14.6348C14.4162 14.6348 14.5152 14.7337 14.5152 14.8889V20.1611C14.5152 20.3162 14.4162 20.4152 14.2611 20.4152H9.77652C9.62118 20.4152 9.52245 20.3162 9.52245 20.1611V14.8889C9.52245 14.7337 9.62118 14.6348 9.77652 14.6348C9.97749 14.6348 10.1798 14.56 10.3228 14.4189C10.4659 14.2778 10.5514 14.0736 10.5514 13.8728C10.5514 13.6718 10.4659 13.4803 10.3228 13.339C10.1798 13.1979 9.97749 13.1203 9.77652 13.1231C8.80479 13.1231 7.99805 13.9174 7.99805 14.8891V20.1613C7.99805 21.133 8.80479 21.9398 9.77652 21.9398H14.2611C15.233 21.9398 16.0398 21.1328 16.0398 20.1613V14.8891C16.0398 13.9176 15.2328 13.1231 14.2611 13.1231Z" fill="#3F3F3F"/>
</svg>
