<svg width="24" height="24" viewBox="0 0 24 24" fill="none" xmlns="http://www.w3.org/2000/svg">
<path d="M2 7.25C2 6.65326 2.23705 6.08097 2.65901 5.65901C3.08097 5.23705 3.65326 5 4.25 5H16.75C17.0455 5 17.3381 5.0582 17.611 5.17127C17.884 5.28434 18.1321 5.45008 18.341 5.65901C18.5499 5.86794 18.7157 6.11598 18.8287 6.38896C18.9418 6.66194 19 6.95453 19 7.25V14.75C19 15.0455 18.9418 15.3381 18.8287 15.611C18.7157 15.884 18.5499 16.1321 18.341 16.341C18.1321 16.5499 17.884 16.7157 17.611 16.8287C17.3381 16.9418 17.0455 17 16.75 17H4.25C3.65326 17 3.08097 16.7629 2.65901 16.341C2.23705 15.919 2 15.3467 2 14.75V7.25ZM4.25 6.5C4.05109 6.5 3.86032 6.57902 3.71967 6.71967C3.57902 6.86032 3.5 7.05109 3.5 7.25V8H4.25C4.44891 8 4.63968 7.92098 4.78033 7.78033C4.92098 7.63968 5 7.44891 5 7.25V6.5H4.25ZM3.5 12.5H4.25C4.84674 12.5 5.41903 12.7371 5.84099 13.159C6.26295 13.581 6.5 14.1533 6.5 14.75V15.5H14.5V14.75C14.5 14.1533 14.7371 13.581 15.159 13.159C15.581 12.7371 16.1533 12.5 16.75 12.5H17.5V9.5H16.75C16.1533 9.5 15.581 9.26295 15.159 8.84099C14.7371 8.41903 14.5 7.84674 14.5 7.25V6.5H6.5V7.25C6.5 7.54547 6.4418 7.83805 6.32873 8.11104C6.21566 8.38402 6.04992 8.63206 5.84099 8.84099C5.63206 9.04992 5.38402 9.21566 5.11104 9.32873C4.83806 9.4418 4.54547 9.5 4.25 9.5H3.5V12.5ZM17.5 8V7.25C17.5 7.05109 17.421 6.86032 17.2803 6.71967C17.1397 6.57902 16.9489 6.5 16.75 6.5H16V7.25C16 7.664 16.336 8 16.75 8H17.5ZM17.5 14H16.75C16.5511 14 16.3603 14.079 16.2197 14.2197C16.079 14.3603 16 14.5511 16 14.75V15.5H16.75C16.9489 15.5 17.1397 15.421 17.2803 15.2803C17.421 15.1397 17.5 14.9489 17.5 14.75V14ZM3.5 14.75C3.5 15.164 3.836 15.5 4.25 15.5H5V14.75C5 14.5511 4.92098 14.3603 4.78033 14.2197C4.63968 14.079 4.44891 14 4.25 14H3.5V14.75Z" fill="#3F3F3F"/>
<path d="M4.40137 18.4999C4.66467 18.9561 5.04351 19.335 5.49977 19.5983C5.95602 19.8616 6.47358 20.0001 7.00037 19.9999H17.2504C17.8741 19.9999 18.4918 19.877 19.0681 19.6383C19.6444 19.3996 20.168 19.0497 20.6091 18.6086C21.0502 18.1676 21.4001 17.6439 21.6388 17.0676C21.8775 16.4913 22.0004 15.8737 22.0004 15.2499V9.99988C22.0004 8.88988 21.3974 7.91988 20.5004 7.40088V15.2499C20.5004 16.1118 20.158 16.9385 19.5485 17.548C18.939 18.1575 18.1123 18.4999 17.2504 18.4999H4.40137Z" fill="#3F3F3F"/>
<path d="M10.4062 13.2695C10.612 13.2435 10.7617 13.1966 10.8555 13.1289C11.0195 13.0091 11.1016 12.8021 11.1016 12.5078C11.1016 12.2839 11.0247 12.1068 10.8711 11.9766C10.7799 11.901 10.625 11.8229 10.4062 11.7422V13.2695ZM10.0352 9.1875C9.80859 9.19271 9.64062 9.25391 9.53125 9.37109C9.42188 9.48568 9.36719 9.64323 9.36719 9.84375C9.36719 10.0625 9.44922 10.2357 9.61328 10.3633C9.70443 10.4336 9.84505 10.4987 10.0352 10.5586V9.1875ZM10.4141 14.9258H10.0352V14.1484C9.52214 14.0911 9.13932 13.9792 8.88672 13.8125C8.44141 13.513 8.22266 13.0026 8.23047 12.2812H9.28516C9.32161 12.6094 9.3724 12.8294 9.4375 12.9414C9.53906 13.1159 9.73828 13.2292 10.0352 13.2812V11.6133L9.71875 11.5195C9.22135 11.3737 8.86979 11.1706 8.66406 10.9102C8.46094 10.6497 8.35938 10.3359 8.35938 9.96875C8.35938 9.72656 8.39844 9.50651 8.47656 9.30859C8.55729 9.11068 8.66927 8.9401 8.8125 8.79688C8.9974 8.61198 9.20312 8.48438 9.42969 8.41406C9.56771 8.36979 9.76953 8.33724 10.0352 8.31641V7.79688H10.4062V8.32422C10.8307 8.35807 11.1641 8.46224 11.4062 8.63672C11.8464 8.91536 12.0742 9.36719 12.0898 9.99219H11.0625C11.0417 9.76042 11.0026 9.59115 10.9453 9.48438C10.8464 9.29948 10.6667 9.19792 10.4062 9.17969V10.668C11.026 10.8815 11.4427 11.0703 11.6562 11.2344C12.0078 11.5078 12.1836 11.8932 12.1836 12.3906C12.1836 13.0469 11.9427 13.5234 11.4609 13.8203C11.1667 14.0026 10.8177 14.1094 10.4141 14.1406V14.9258Z" fill="#3F3F3F"/>
</svg>
