<?xml version="1.0" standalone="no"?>
<!DOCTYPE svg PUBLIC "-//W3C//DTD SVG 20010904//EN"
 "http://www.w3.org/TR/2001/REC-SVG-20010904/DTD/svg10.dtd">
<svg version="1.0" xmlns="http://www.w3.org/2000/svg"
 width="260.000000pt" height="260.000000pt" viewBox="0 0 260.000000 260.000000"
 preserveAspectRatio="xMidYMid meet">
<metadata>
Created by potrace 1.11, written by Peter Selinger 2001-2013
</metadata>
<g transform="translate(0.000000,260.000000) scale(0.100000,-0.100000)"
fill="#000000" stroke="none">
<path d="M380 1843 c0 -5 126 -241 279 -525 l279 -518 -256 0 -255 0 47 50
c49 52 52 62 35 107 l-11 28 -45 -50 c-125 -137 -134 -151 -122 -179 l12 -26
328 0 329 0 15 24 c16 24 8 39 -272 560 l-288 536 -37 0 c-21 0 -38 -3 -38 -7z"/>
<path d="M554 1833 c6 -14 393 -737 560 -1046 29 -55 33 -58 66 -55 35 3 35 4
175 265 77 145 142 263 145 263 3 0 68 -119 145 -265 l140 -265 35 0 35 0 243
458 c133 251 267 503 297 560 l55 103 -42 -3 -42 -3 -271 -507 c-148 -280
-272 -508 -275 -508 -5 0 -89 154 -219 400 l-60 115 120 225 c110 207 118 227
108 253 l-11 27 -259 0 -259 0 -12 -26 c-10 -22 -6 -36 38 -119 27 -52 52 -95
55 -95 3 0 14 15 24 33 17 32 17 34 -9 85 l-26 52 190 0 191 0 -17 -32 c-9
-18 -119 -224 -244 -458 -125 -234 -233 -436 -239 -448 -14 -25 -7 -37 -468
825 l-98 183 -39 0 c-32 0 -37 -3 -32 -17z"/>
</g>
</svg>
