<svg width="25" height="24" viewBox="0 0 25 24" fill="none" xmlns="http://www.w3.org/2000/svg">
<path d="M22.1054 15.9201V18.9201C22.1065 19.1986 22.0492 19.4743 21.9371 19.7294C21.825 19.9846 21.6605 20.2137 21.4543 20.402C21.2481 20.5902 21.0047 20.7336 20.7396 20.8228C20.4745 20.912 20.1936 20.9452 19.9149 20.9201C16.823 20.5857 13.8531 19.5342 11.2436 17.8501C8.81589 16.3148 6.7576 14.2663 5.21492 11.8501C3.51681 9.2413 2.46004 6.27109 2.13023 3.1801C2.10512 2.90356 2.13814 2.62486 2.22719 2.36172C2.31624 2.09859 2.45936 1.85679 2.64745 1.65172C2.83555 1.44665 3.06448 1.28281 3.31968 1.17062C3.57488 1.05843 3.85076 1.00036 4.12975 1.0001H7.1441C7.63173 0.995321 8.10447 1.16718 8.4742 1.48363C8.84393 1.80008 9.08542 2.23954 9.15367 2.7201C9.2809 3.68016 9.51685 4.62282 9.85702 5.5301C9.99221 5.88802 10.0215 6.27701 9.94133 6.65098C9.86119 7.02494 9.67502 7.36821 9.40487 7.6401L8.12879 8.9101C9.55916 11.4136 11.642 13.4865 14.1575 14.9101L15.4336 13.6401C15.7068 13.3712 16.0517 13.1859 16.4274 13.1062C16.8032 13.0264 17.194 13.0556 17.5537 13.1901C18.4653 13.5286 19.4125 13.7635 20.3771 13.8901C20.8652 13.9586 21.311 14.2033 21.6296 14.5776C21.9483 14.9519 22.1176 15.4297 22.1054 15.9201Z" stroke="#3F3F3F" stroke-width="2" stroke-linecap="round" stroke-linejoin="round"/>
</svg>
